<?xml version="1.0" encoding="UTF-8"?>
<svg width="275mm" height="75.307mm" version="1.1" viewBox="0 0 275 75.307" xmlns="http://www.w3.org/2000/svg" xmlns:cc="http://creativecommons.org/ns#" xmlns:dc="http://purl.org/dc/elements/1.1/" xmlns:rdf="http://www.w3.org/1999/02/22-rdf-syntax-ns#">
 <metadata>
  <rdf:RDF>
   <cc:Work rdf:about="">
    <dc:format>image/svg+xml</dc:format>
    <dc:type rdf:resource="http://purl.org/dc/dcmitype/StillImage"/>
    <dc:title/>
   </cc:Work>
  </rdf:RDF>
 </metadata>
 <g transform="translate(-139.32 -56.378)">
  <g transform="matrix(5.0529 0 0 5.0529 -162.86 -546.11)">
   <rect x="59.803" y="119.24" width="54.424" height="14.904" fill="#072f54"/>
   <g fill="#fff">
    <path d="m66.166 130.9q-0.87841 0-1.7039-0.23283-0.81491-0.24342-1.3123-0.62442l0.58208-1.2912q0.47625 0.34925 1.1324 0.56091 0.65616 0.21167 1.3123 0.21167 0.73025 0 1.0795-0.21167 0.34925-0.22225 0.34925-0.58208 0-0.26458-0.21167-0.43391-0.20108-0.17992-0.52916-0.28575-0.3175-0.10584-0.86783-0.23284-0.84666-0.20108-1.3864-0.40216-0.53975-0.20108-0.93133-0.64558-0.381-0.4445-0.381-1.1853 0-0.64558 0.34925-1.1642 0.34925-0.52917 1.0477-0.83608 0.70908-0.30692 1.7251-0.30692 0.70908 0 1.3864 0.16933 0.67733 0.16934 1.1853 0.48683l-0.52916 1.3018q-1.0266-0.58208-2.0532-0.58208-0.71966 0-1.0689 0.23283-0.33866 0.23283-0.33866 0.61383t0.39158 0.5715q0.40216 0.17992 1.2171 0.35983 0.84666 0.20109 1.3864 0.40217 0.53975 0.20108 0.92075 0.635 0.39158 0.43391 0.39158 1.1747 0 0.635-0.35983 1.1642-0.34925 0.51858-1.0583 0.82549-0.70908 0.30692-1.7251 0.30692z" style="font-variant-caps:normal;font-variant-east-asian:normal;font-variant-ligatures:normal;font-variant-numeric:normal"/>
    <path d="m70.491 123.36h1.7145v7.4083h-1.7145z" style="font-variant-caps:normal;font-variant-east-asian:normal;font-variant-ligatures:normal;font-variant-numeric:normal"/>
    <path d="m80.706 130.77-0.01058-4.445-2.1802 3.6618h-0.77258l-2.1696-3.5666v4.3497h-1.6087v-7.4083h1.4182l2.7728 4.6037 2.7305-4.6037h1.4076l0.02117 7.4083z" style="font-variant-caps:normal;font-variant-east-asian:normal;font-variant-ligatures:normal;font-variant-numeric:normal"/>
   </g>
   <path d="m91.577 122.48-3.6304 8.2898h-1.6933l-2.1943-5.1578h1.8521l1.2524 3.0411 2.7096-6.1731z" fill="#fbc108" style="font-variant-caps:normal;font-variant-east-asian:normal;font-variant-ligatures:normal;font-variant-numeric:normal"/>
   <g fill="#fff">
    <path d="m95.266 130.9q-1.1536 0-2.0849-0.49742-0.92075-0.49741-1.4499-1.3652-0.51858-0.87842-0.51858-1.9685t0.51858-1.9579q0.52916-0.87841 1.4499-1.3758 0.93133-0.49741 2.0849-0.49741 1.1536 0 2.0743 0.49741 0.92075 0.49742 1.4499 1.3758 0.52916 0.86783 0.52916 1.9579t-0.52916 1.9685q-0.52916 0.86783-1.4499 1.3652-0.92075 0.49742-2.0743 0.49742zm0-1.4605q0.65616 0 1.1853-0.29633 0.52916-0.30692 0.8255-0.84666 0.30692-0.53975 0.30692-1.2277 0-0.68791-0.30692-1.2277-0.29633-0.53975-0.8255-0.83608-0.52916-0.30692-1.1853-0.30692-0.65616 0-1.1853 0.30692-0.52916 0.29633-0.83608 0.83608-0.29633 0.53975-0.29633 1.2277 0 0.68792 0.29633 1.2277 0.30692 0.53974 0.83608 0.84666 0.52916 0.29633 1.1853 0.29633z" style="font-variant-caps:normal;font-variant-east-asian:normal;font-variant-ligatures:normal;font-variant-numeric:normal"/>
    <path d="m107.4 123.36v7.4083h-1.4076l-3.6936-4.4979v4.4979h-1.6933v-7.4083h1.4182l3.683 4.4979v-4.4979z" style="font-variant-caps:normal;font-variant-east-asian:normal;font-variant-ligatures:normal;font-variant-numeric:normal"/>
    <path d="m109.17 123.36h1.7145v7.4083h-1.7145z" style="font-variant-caps:normal;font-variant-east-asian:normal;font-variant-ligatures:normal;font-variant-numeric:normal"/>
   </g>
  </g>
  <rect x="62.516" y="46.256" width="8.3123" height="8.3123" fill="#072f54"/>
  <rect x="73.156" y="46.256" width="8.3123" height="8.3123" fill="#fbc108"/>
  <rect x="83.94" y="46.256" width="8.3123" height="8.3123" fill="#0046bf"/>
  <rect x="94.579" y="46.256" width="8.3123" height="8.3123" fill="#feef22"/>
  <g transform="matrix(5.0529 0 0 5.0529 -160.22 -535.39)">
   <rect x="59.803" y="137.74" width="54.424" height="14.904" fill="#0046bf"/>
   <g fill="#fff">
    <path d="m66.166 149.4q-0.87841 0-1.7039-0.23283-0.81491-0.24342-1.3123-0.62442l0.58208-1.2912q0.47625 0.34925 1.1324 0.56091 0.65616 0.21167 1.3123 0.21167 0.73025 0 1.0795-0.21167 0.34925-0.22225 0.34925-0.58208 0-0.26458-0.21167-0.43391-0.20108-0.17992-0.52916-0.28575-0.3175-0.10584-0.86783-0.23284-0.84666-0.20108-1.3864-0.40216-0.53975-0.20108-0.93133-0.64558-0.381-0.4445-0.381-1.1853 0-0.64558 0.34925-1.1642 0.34925-0.52917 1.0477-0.83608 0.70908-0.30692 1.7251-0.30692 0.70908 0 1.3864 0.16933 0.67733 0.16934 1.1853 0.48683l-0.52916 1.3018q-1.0266-0.58208-2.0532-0.58208-0.71966 0-1.0689 0.23283-0.33866 0.23283-0.33866 0.61383t0.39158 0.5715q0.40216 0.17992 1.2171 0.35983 0.84666 0.20109 1.3864 0.40217 0.53975 0.20108 0.92075 0.635 0.39158 0.43391 0.39158 1.1747 0 0.635-0.35983 1.1642-0.34925 0.51858-1.0583 0.82549-0.70908 0.30692-1.7251 0.30692z" style="font-variant-caps:normal;font-variant-east-asian:normal;font-variant-ligatures:normal;font-variant-numeric:normal"/>
    <path d="m70.491 141.87h1.7145v7.4083h-1.7145z" style="font-variant-caps:normal;font-variant-east-asian:normal;font-variant-ligatures:normal;font-variant-numeric:normal"/>
    <path d="m80.706 149.28-0.01058-4.445-2.1802 3.6618h-0.77258l-2.1696-3.5666v4.3497h-1.6087v-7.4083h1.4182l2.7728 4.6037 2.7305-4.6037h1.4076l0.02117 7.4083z" style="font-variant-caps:normal;font-variant-east-asian:normal;font-variant-ligatures:normal;font-variant-numeric:normal"/>
   </g>
   <path d="m91.577 140.99-3.6304 8.2898h-1.6933l-2.1943-5.1578h1.8521l1.2524 3.0411 2.7096-6.1731z" fill="#feef22" style="font-variant-caps:normal;font-variant-east-asian:normal;font-variant-ligatures:normal;font-variant-numeric:normal"/>
   <g fill="#fff">
    <path d="m95.266 149.4q-1.1536 0-2.0849-0.49742-0.92075-0.49741-1.4499-1.3652-0.51858-0.87842-0.51858-1.9685t0.51858-1.9579q0.52916-0.87841 1.4499-1.3758 0.93133-0.49741 2.0849-0.49741 1.1536 0 2.0743 0.49741 0.92075 0.49742 1.4499 1.3758 0.52916 0.86783 0.52916 1.9579t-0.52916 1.9685q-0.52916 0.86783-1.4499 1.3652-0.92075 0.49742-2.0743 0.49742zm0-1.4605q0.65616 0 1.1853-0.29633 0.52916-0.30692 0.8255-0.84666 0.30692-0.53975 0.30692-1.2277 0-0.68791-0.30692-1.2277-0.29633-0.53975-0.8255-0.83608-0.52916-0.30692-1.1853-0.30692-0.65616 0-1.1853 0.30692-0.52916 0.29633-0.83608 0.83608-0.29633 0.53975-0.29633 1.2277 0 0.68792 0.29633 1.2277 0.30692 0.53974 0.83608 0.84666 0.52916 0.29633 1.1853 0.29633z" style="font-variant-caps:normal;font-variant-east-asian:normal;font-variant-ligatures:normal;font-variant-numeric:normal"/>
    <path d="m107.4 141.87v7.4083h-1.4076l-3.6936-4.4979v4.4979h-1.6933v-7.4083h1.4182l3.683 4.4979v-4.4979z" style="font-variant-caps:normal;font-variant-east-asian:normal;font-variant-ligatures:normal;font-variant-numeric:normal"/>
    <path d="m109.17 141.87h1.7145v7.4083h-1.7145z" style="font-variant-caps:normal;font-variant-east-asian:normal;font-variant-ligatures:normal;font-variant-numeric:normal"/>
   </g>
  </g>
 </g>
</svg>
